<svg  xmlns="http://www.w3.org/2000/svg" xmlns:xlink="http://www.w3.org/1999/xlink" width="29px" height="29px"><path fill-rule="evenodd"  stroke-width="1px" stroke="rgb(182, 218, 255)" fill="rgb(255, 255, 255)" d="M14.499,3.499 C20.574,3.499 25.498,8.425 25.498,14.499 C25.498,20.575 20.574,25.499 14.499,25.499 C8.424,25.499 3.499,20.575 3.499,14.499 C3.499,8.425 8.424,3.499 14.499,3.499 Z"/><path fill-rule="evenodd"  fill="rgb(255, 255, 255)" d="M14.499,4.499 C20.022,4.499 24.499,8.977 24.499,14.499 C24.499,20.022 20.022,24.499 14.499,24.499 C8.975,24.499 4.499,20.022 4.499,14.499 C4.499,8.977 8.975,4.499 14.499,4.499 Z"/><path fill-rule="evenodd"  fill="rgb(0, 126, 255)" d="M14.500,24.500 C8.976,24.500 4.500,20.023 4.500,14.500 C4.500,8.977 8.976,4.500 14.500,4.500 C20.022,4.500 24.500,8.977 24.500,14.500 C24.500,20.023 20.022,24.500 14.500,24.500 ZM19.670,7.410 C18.939,6.917 18.131,6.494 17.198,6.203 C16.941,6.122 16.667,6.053 16.393,5.994 C16.305,5.985 16.216,5.975 16.127,5.966 C16.067,5.940 16.007,5.913 15.948,5.887 C15.837,5.861 15.781,5.938 15.754,6.002 C15.761,6.013 15.768,6.026 15.776,6.038 C15.872,6.033 15.917,6.042 15.961,6.088 C15.960,6.105 15.957,6.122 15.956,6.139 C15.849,6.352 15.210,6.277 15.028,6.167 C15.025,6.160 15.023,6.153 15.021,6.146 C15.092,6.035 15.413,6.032 15.516,5.930 C15.508,5.913 15.502,5.896 15.495,5.880 C15.126,5.789 14.635,5.818 14.223,5.815 C13.963,6.023 13.642,5.958 13.325,5.887 C13.217,5.863 13.171,5.938 13.102,5.959 C12.920,6.013 12.625,6.000 12.477,6.088 C12.477,6.093 12.477,6.098 12.477,6.103 C12.432,6.251 12.567,6.314 12.706,6.275 C12.811,6.245 13.146,6.049 13.232,5.980 C13.262,5.985 13.293,5.990 13.325,5.994 C13.327,6.000 13.330,6.004 13.332,6.009 C13.302,6.056 13.239,6.066 13.209,6.110 C13.142,6.209 13.148,6.364 13.088,6.455 C13.007,6.482 12.995,6.553 12.901,6.562 C12.898,6.562 12.896,6.562 12.893,6.562 C12.837,6.478 12.773,6.386 12.642,6.376 C12.569,6.407 12.351,6.520 12.383,6.620 C12.445,6.747 12.827,6.822 12.642,7.073 C12.600,7.131 12.569,7.185 12.469,7.188 C12.412,7.161 12.367,7.132 12.362,7.051 C12.397,7.008 12.434,6.964 12.469,6.921 C12.434,6.830 12.028,6.625 12.009,6.828 C12.058,6.859 12.119,6.883 12.153,6.929 C12.150,7.022 12.077,7.096 12.024,7.144 C11.885,7.144 11.785,7.092 11.664,7.065 C11.514,7.032 11.280,7.032 11.133,7.044 C11.068,7.044 11.004,7.044 10.938,7.044 C10.895,7.090 10.853,7.135 10.809,7.180 C10.695,7.177 10.586,7.077 10.507,7.022 C10.507,7.010 10.507,6.998 10.507,6.986 C10.711,6.752 11.095,6.931 11.427,6.879 C11.566,6.857 11.792,6.821 11.736,6.656 C11.684,6.555 11.556,6.626 11.442,6.584 C11.378,6.561 11.362,6.482 11.305,6.447 C11.154,6.526 11.004,6.605 10.853,6.685 C9.965,7.056 9.166,7.638 8.531,8.273 C8.419,8.385 7.879,8.877 7.871,9.013 C8.213,9.274 8.297,9.463 8.524,9.832 C8.617,9.983 8.757,10.106 8.790,10.321 C8.809,10.446 8.728,10.520 8.711,10.623 C8.652,10.972 8.710,11.403 8.805,11.643 C8.890,11.862 9.061,12.084 9.243,12.211 C9.344,12.282 9.482,12.324 9.560,12.419 C9.636,12.514 9.666,12.640 9.738,12.743 C9.913,12.990 10.096,13.233 10.278,13.469 C10.363,13.580 10.427,13.713 10.537,13.799 C10.568,13.792 10.566,13.794 10.580,13.770 C10.625,13.674 10.525,13.607 10.486,13.548 C10.363,13.362 10.215,13.207 10.098,13.016 C10.072,12.973 9.927,12.771 10.005,12.736 C10.110,12.688 10.352,12.999 10.393,13.059 C10.528,13.258 10.714,13.408 10.853,13.598 C10.990,13.786 11.060,14.043 11.205,14.223 C11.372,14.432 11.636,14.505 11.872,14.647 C11.992,14.719 12.087,14.806 12.246,14.841 C12.419,14.878 12.584,14.741 12.771,14.812 C12.872,14.910 12.973,15.009 13.073,15.107 C13.195,15.186 13.436,15.141 13.555,15.222 C13.663,15.297 13.729,15.429 13.806,15.538 C13.919,15.629 14.031,15.720 14.145,15.811 C14.201,15.849 14.337,15.926 14.431,15.905 C14.610,15.865 14.729,15.822 14.834,15.998 C14.899,16.108 14.854,16.324 14.805,16.408 C14.704,16.578 14.513,16.719 14.461,16.932 C14.459,17.088 14.455,17.244 14.453,17.400 C14.432,17.463 14.380,17.466 14.374,17.558 C14.487,17.793 14.637,18.010 14.776,18.219 C14.894,18.396 14.980,18.585 15.136,18.722 C15.301,18.867 15.666,19.066 15.761,19.254 C15.851,19.431 15.795,20.131 15.747,20.353 C15.716,20.528 15.684,20.703 15.653,20.878 C15.649,21.017 15.644,21.156 15.639,21.295 C15.565,21.548 15.430,21.782 15.380,22.042 C15.336,22.272 15.509,22.433 15.466,22.631 C15.450,22.705 15.380,22.939 15.337,22.998 C15.280,23.057 15.222,23.117 15.165,23.177 C15.165,23.192 15.165,23.207 15.165,23.221 C15.189,23.267 15.283,23.316 15.337,23.328 C15.337,23.328 16.139,23.226 16.149,23.221 C16.197,23.026 16.293,22.952 16.358,22.804 C16.391,22.691 16.424,22.579 16.458,22.466 C16.514,22.383 16.641,22.368 16.703,22.293 C16.743,22.243 16.748,22.167 16.811,22.136 C16.866,22.140 16.921,22.145 16.975,22.150 C17.138,22.105 17.334,22.016 17.407,21.877 C17.446,21.802 17.467,21.553 17.507,21.518 C17.583,21.469 17.761,21.518 17.838,21.467 C17.998,21.360 18.100,21.123 18.218,20.971 C18.328,20.847 18.439,20.722 18.550,20.597 C18.635,20.453 18.646,20.281 18.743,20.159 C18.797,20.093 18.943,20.012 19.031,19.987 C19.086,19.980 19.141,19.972 19.196,19.965 C19.344,19.908 19.381,19.762 19.491,19.670 C19.557,19.620 19.625,19.570 19.691,19.520 C19.827,19.348 19.729,18.981 19.807,18.751 C19.915,18.433 20.274,18.286 20.404,17.946 C20.492,17.714 20.317,17.589 20.202,17.522 C19.957,17.379 19.643,17.292 19.326,17.220 C19.260,17.215 19.196,17.210 19.131,17.206 C18.980,17.169 18.868,16.995 18.700,17.026 C18.622,17.093 18.627,17.209 18.478,17.170 C18.475,17.162 18.472,17.155 18.470,17.148 C18.504,17.079 18.537,17.009 18.571,16.940 C18.563,16.935 18.556,16.930 18.550,16.925 C18.438,16.945 18.322,17.067 18.218,16.968 C18.221,16.954 18.224,16.940 18.226,16.925 C18.266,16.844 18.353,16.805 18.384,16.710 C18.468,16.456 18.005,16.190 17.830,16.135 C17.721,16.100 17.581,16.129 17.493,16.077 C17.248,15.935 17.032,15.733 16.760,15.624 C16.620,15.569 16.419,15.653 16.271,15.603 C16.176,15.548 16.080,15.493 15.984,15.438 C15.851,15.406 15.786,15.547 15.682,15.567 C15.553,15.593 15.496,15.455 15.358,15.488 C15.218,15.521 15.076,15.719 14.977,15.811 C14.832,15.812 14.761,15.755 14.655,15.732 C14.558,15.712 14.492,15.758 14.425,15.768 C14.233,15.798 14.058,15.638 14.014,15.510 C13.951,15.324 14.148,15.133 14.014,14.956 C13.933,14.847 13.762,14.946 13.604,14.913 C13.514,14.894 13.470,14.828 13.419,14.769 C13.425,14.594 13.718,14.296 13.612,14.180 C13.505,14.023 13.288,14.166 13.209,14.230 C13.105,14.315 13.050,14.473 12.916,14.525 C12.500,14.687 12.181,14.264 12.124,13.986 C12.031,13.523 12.516,13.136 12.830,13.052 C12.942,13.045 13.054,13.037 13.166,13.030 C13.372,12.991 13.638,12.877 13.870,12.973 C14.138,13.083 14.213,13.532 14.418,13.562 C14.534,13.448 14.483,13.323 14.453,13.160 C14.449,13.097 14.444,13.035 14.439,12.973 C14.423,12.921 14.368,12.875 14.381,12.815 C14.449,12.529 14.928,12.420 15.050,12.146 C15.019,12.070 14.984,12.008 15.006,11.916 C15.071,11.872 15.167,11.844 15.237,11.801 C15.261,11.672 15.311,11.523 15.402,11.463 C15.467,11.420 15.552,11.429 15.610,11.384 C15.708,11.309 15.771,11.196 15.847,11.097 C15.936,11.037 16.024,10.977 16.113,10.917 C16.215,10.842 16.339,10.702 16.502,10.738 C16.504,10.745 16.507,10.752 16.509,10.759 C16.509,10.771 16.509,10.783 16.509,10.795 C16.465,10.873 16.320,10.911 16.256,10.975 C16.259,11.015 16.264,11.017 16.278,11.039 C16.811,11.091 16.881,10.608 17.277,10.472 C17.464,10.408 17.838,10.512 17.931,10.450 C17.933,10.446 17.936,10.441 17.938,10.436 C17.938,10.330 17.582,9.831 17.486,9.868 C17.215,10.016 17.217,10.431 16.889,10.558 C16.733,10.618 16.509,10.591 16.458,10.472 C16.410,10.360 16.529,10.302 16.516,10.228 C16.410,9.896 15.818,10.424 15.761,10.357 C15.750,10.340 15.747,10.331 15.747,10.299 C15.865,10.071 16.149,9.991 16.480,10.034 C16.618,10.036 16.757,10.038 16.896,10.041 C17.028,10.013 17.189,9.937 17.292,9.875 C17.395,9.813 17.547,9.790 17.557,9.638 C17.471,9.392 17.196,9.264 17.012,9.114 C16.863,8.993 16.794,8.781 16.703,8.603 C16.661,8.525 16.556,8.316 16.423,8.366 C16.273,8.431 16.241,8.741 16.042,8.689 C15.895,8.652 15.750,8.379 15.660,8.266 C15.553,8.129 15.330,8.101 15.129,8.057 C14.978,8.024 14.780,7.944 14.683,8.107 C14.544,8.326 14.961,8.829 14.856,9.070 C14.802,9.193 14.616,9.240 14.503,9.308 C14.461,9.474 14.659,9.586 14.618,9.703 C14.575,9.791 14.360,9.808 14.274,9.746 C14.148,9.657 14.305,9.422 14.115,9.293 C13.996,9.212 13.777,9.179 13.619,9.135 C13.507,9.103 13.390,9.035 13.288,8.992 C13.041,8.886 12.744,8.851 12.598,8.647 C12.348,8.294 12.845,7.958 13.088,7.820 C13.204,7.753 13.338,7.728 13.433,7.640 C13.521,7.557 13.463,7.376 13.634,7.295 C13.804,7.246 14.050,7.363 14.158,7.223 C14.301,7.042 14.228,6.625 14.496,6.569 C14.768,6.513 15.070,6.829 15.222,6.929 C15.301,6.981 15.443,7.013 15.409,7.173 C15.358,7.408 15.076,7.495 14.899,7.612 C14.901,7.624 14.904,7.635 14.906,7.648 C15.039,7.684 15.237,7.622 15.373,7.676 C15.554,7.750 16.054,8.214 16.314,8.072 C16.320,8.027 16.318,8.010 16.300,7.978 C16.192,7.957 16.138,7.935 16.077,7.871 C16.079,7.838 16.083,7.831 16.092,7.813 C16.262,7.822 16.376,7.980 16.530,7.877 C16.535,7.839 16.539,7.801 16.544,7.763 C16.460,7.610 16.027,7.543 16.163,7.302 C16.348,7.301 16.324,7.504 16.458,7.554 C16.602,7.607 16.826,7.418 16.788,7.302 C16.757,7.264 16.710,7.272 16.659,7.252 C16.507,7.191 16.017,6.963 16.042,6.785 C16.054,6.776 16.065,6.766 16.077,6.757 C16.142,6.784 16.168,6.832 16.221,6.864 C16.426,6.988 16.630,7.116 16.825,7.245 C16.926,7.312 17.177,7.410 17.235,7.504 C17.252,7.558 17.191,7.606 17.162,7.640 C17.171,7.683 17.185,7.698 17.220,7.712 C17.439,7.762 17.421,7.576 17.666,7.749 C17.716,7.784 17.753,7.793 17.759,7.877 C17.745,7.902 17.731,7.926 17.716,7.950 C17.558,7.988 17.580,7.803 17.349,7.871 C17.347,7.875 17.344,7.880 17.342,7.885 C17.356,8.021 17.743,7.997 17.845,8.172 C17.816,8.410 17.453,8.350 17.349,8.517 C17.367,8.601 17.445,8.585 17.507,8.618 C17.517,8.702 17.526,8.785 17.537,8.869 C17.596,8.948 17.655,9.027 17.716,9.106 C17.866,9.317 17.979,9.513 18.161,9.689 C18.247,9.771 18.481,9.919 18.643,9.825 C18.972,9.633 19.027,9.005 19.289,8.869 C19.420,8.802 19.676,8.840 19.814,8.783 C19.969,8.675 20.125,8.567 20.282,8.460 C20.368,8.428 20.713,8.376 20.741,8.330 C20.743,8.321 20.746,8.311 20.748,8.302 C20.370,8.029 20.059,7.673 19.670,7.410 ZM22.941,11.837 C22.912,11.771 22.920,11.644 22.862,11.607 C22.844,11.605 22.827,11.602 22.811,11.600 C22.752,11.645 22.621,11.850 22.601,11.924 C22.607,12.019 22.612,12.115 22.616,12.211 C22.606,12.277 22.584,12.363 22.609,12.426 C22.653,12.528 22.752,12.612 22.824,12.685 C22.912,12.772 23.014,12.883 23.178,12.829 C23.245,12.693 23.003,11.985 22.941,11.837 ZM23.227,13.260 C23.125,13.440 23.022,13.619 22.919,13.799 C22.832,13.913 22.684,13.966 22.566,14.051 C22.508,14.094 22.418,14.229 22.401,14.309 C22.399,14.348 22.397,14.386 22.394,14.424 C22.334,14.545 22.189,14.609 22.151,14.762 C22.111,14.914 22.180,15.045 22.187,15.179 C22.181,15.399 22.176,15.620 22.172,15.840 C22.245,16.124 22.586,16.403 22.796,16.566 C22.873,16.625 22.969,16.751 23.070,16.774 C23.187,16.802 23.242,16.343 23.271,16.250 C23.308,16.129 23.294,15.967 23.322,15.818 C23.409,15.338 23.472,14.540 23.385,13.986 C23.358,13.804 23.382,13.276 23.227,13.260 Z"/></svg>