<svg  xmlns="http://www.w3.org/2000/svg" xmlns:xlink="http://www.w3.org/1999/xlink" width="170px" height="170px"><path fill-rule="evenodd"  stroke-width="2px" stroke="rgb(232, 243, 255)" fill="rgb(255, 255, 255)" d="M11.000,5.000 L159.000,5.000 C162.314,5.000 165.000,7.686 165.000,11.000 L165.000,159.000 C165.000,162.314 162.314,165.000 159.000,165.000 L11.000,165.000 C7.687,165.000 5.000,162.314 5.000,159.000 L5.000,11.000 C5.000,7.686 7.687,5.000 11.000,5.000 Z"/><path fill-rule="evenodd"  fill="rgb(0, 0, 0)" d="M122.000,48.000 L122.000,25.000 L145.000,25.000 L145.000,48.000 L122.000,48.000 ZM142.000,28.000 L125.000,28.000 L125.000,45.000 L142.000,45.000 L142.000,28.000 ZM139.000,42.000 L128.000,42.000 L128.000,31.000 L139.000,31.000 L139.000,42.000 ZM122.007,53.950 C120.480,54.577 117.304,53.525 115.881,54.384 C115.643,55.148 116.028,56.607 115.592,57.375 C114.887,57.530 113.478,57.576 112.842,57.423 C112.502,56.630 112.315,51.743 113.035,51.394 C113.958,51.067 115.005,51.581 115.881,51.104 C116.047,50.355 116.258,44.939 115.785,44.593 C115.236,44.191 112.726,44.221 112.456,44.786 C112.162,45.454 112.659,46.650 112.408,47.390 C112.204,47.991 110.110,48.042 109.803,47.486 C109.300,46.456 110.218,42.208 109.465,41.650 C108.853,41.196 107.364,41.591 106.571,41.457 C106.131,41.037 106.170,39.212 106.330,38.418 C107.757,37.752 110.869,38.688 112.408,38.129 C112.722,37.364 112.479,35.959 112.649,34.994 C112.746,34.929 112.842,34.865 112.939,34.801 C113.819,34.788 115.111,34.677 115.736,34.994 C115.816,35.784 115.448,37.723 116.026,38.081 C116.585,38.570 118.446,38.110 119.161,38.611 C119.145,41.634 119.129,44.657 119.113,47.680 C119.113,48.677 118.821,50.501 119.257,51.104 C119.642,51.635 121.378,51.344 122.007,51.635 C122.194,52.219 122.157,53.243 122.007,53.950 ZM116.219,34.608 C116.154,34.527 116.090,34.447 116.026,34.367 C115.851,33.579 116.390,32.262 115.688,31.907 C115.155,31.638 114.082,31.762 113.324,31.762 C111.799,31.762 107.161,31.462 106.233,31.955 C105.650,33.410 106.358,36.143 106.040,37.936 C105.537,38.165 103.210,38.308 102.953,37.888 C102.438,37.075 103.055,35.408 102.567,34.704 C101.862,34.654 100.540,34.801 100.011,34.511 C99.995,33.402 99.978,32.292 99.962,31.183 C99.962,29.523 99.635,26.518 100.107,25.202 C100.188,25.154 100.268,25.105 100.348,25.057 C101.041,25.055 101.980,25.023 102.519,25.154 C102.876,26.000 102.496,27.639 102.809,28.385 C104.271,28.862 107.989,28.530 109.851,28.530 C110.782,28.530 111.922,28.629 112.504,28.289 C112.729,27.577 112.486,26.257 112.649,25.347 C112.746,25.266 112.842,25.186 112.939,25.105 C113.613,24.905 115.494,24.976 115.736,25.443 C115.957,26.319 115.602,27.509 115.881,28.289 C116.775,28.702 118.489,28.287 119.161,28.868 C119.154,30.006 119.366,33.903 118.968,34.511 C118.348,34.712 117.075,34.772 116.219,34.608 ZM99.528,41.409 C98.039,41.669 94.112,40.964 93.016,41.699 C92.593,43.289 92.920,46.467 92.920,48.451 C92.920,49.206 93.093,50.507 92.775,51.008 C92.482,51.334 90.772,51.199 90.411,51.104 C89.554,49.210 90.992,42.914 89.881,41.505 C87.920,41.340 85.221,41.819 83.513,41.361 C83.288,40.737 83.369,39.953 83.369,39.094 C83.353,36.778 83.337,34.463 83.320,32.148 C82.847,31.513 77.846,31.666 77.001,31.907 C76.736,32.559 76.687,34.128 77.050,34.704 C77.893,34.896 79.580,34.605 80.233,34.994 C80.249,38.129 80.266,41.265 80.282,44.399 C80.282,45.522 80.468,47.148 79.992,47.824 C79.347,47.868 77.474,48.010 77.146,47.535 C76.713,46.753 77.271,45.257 76.857,44.544 C76.033,44.277 74.340,44.606 73.673,44.158 C73.657,40.139 73.641,36.119 73.625,32.099 C72.932,31.612 71.538,31.989 70.779,31.569 C70.779,30.588 70.779,29.607 70.779,28.627 C70.811,28.611 70.843,28.595 70.875,28.578 C71.926,28.410 73.017,28.631 73.673,28.144 C73.680,27.620 73.429,25.655 73.818,25.298 C73.985,25.143 74.208,25.158 74.445,25.057 C78.186,25.063 76.329,25.641 76.905,28.241 C77.435,28.611 80.083,28.857 80.426,28.144 C80.442,27.212 80.458,26.279 80.475,25.347 C80.614,25.235 80.611,25.176 80.812,25.105 C81.580,24.919 86.097,24.987 86.552,25.250 C86.898,27.246 86.133,30.125 86.793,31.859 C87.534,31.986 89.343,31.749 90.026,32.148 C90.105,32.652 90.192,34.330 89.881,34.560 C89.317,34.958 87.474,34.595 86.793,34.753 C86.497,35.295 86.353,37.815 86.890,38.177 C87.467,38.504 89.625,38.348 90.074,38.081 C90.333,37.291 89.969,35.580 90.363,34.849 C91.085,34.771 92.405,34.696 92.920,34.994 C92.936,35.974 92.952,36.955 92.968,37.936 C93.080,38.032 93.193,38.129 93.306,38.225 C94.052,38.432 95.618,38.349 96.296,38.177 C96.781,37.412 96.248,35.579 96.682,34.849 C97.679,34.865 98.676,34.881 99.673,34.897 C99.689,34.929 99.705,34.962 99.721,34.994 C99.950,36.195 99.957,40.777 99.528,41.409 ZM96.296,34.560 C95.642,34.771 93.676,34.823 93.113,34.511 C93.113,32.309 93.113,30.106 93.113,27.903 C93.113,26.922 92.916,25.723 93.306,25.105 C93.370,25.089 93.434,25.073 93.498,25.057 C94.306,25.076 95.547,24.998 96.200,25.154 C96.522,25.803 96.345,26.913 96.345,27.855 C96.329,30.090 96.313,32.325 96.296,34.560 ZM79.895,57.471 C79.698,57.528 77.258,57.495 77.146,57.375 C77.068,57.290 76.902,55.051 76.953,54.818 C77.014,54.543 77.222,54.466 77.435,54.336 C78.328,54.321 79.709,54.204 80.233,54.481 C80.300,55.390 80.355,56.547 80.185,57.278 C80.089,57.342 79.992,57.407 79.895,57.471 ZM70.779,44.689 C70.827,44.673 70.875,44.657 70.923,44.641 C71.679,44.625 72.435,44.609 73.191,44.593 C73.271,44.673 73.351,44.753 73.432,44.834 C73.432,47.776 73.432,50.719 73.432,53.661 C73.432,54.838 73.646,56.642 73.191,57.423 C72.410,57.498 70.982,57.269 70.634,57.809 C70.311,58.371 70.364,60.763 70.875,60.993 C71.707,61.366 73.393,61.089 73.625,60.558 C73.906,59.982 73.592,58.655 73.721,57.905 C74.299,57.612 75.863,57.605 76.664,57.761 C76.964,58.527 76.494,60.584 77.195,60.945 C78.028,61.341 79.554,60.793 80.185,61.233 C80.306,61.746 80.507,63.404 80.040,63.742 C79.126,64.078 77.617,63.386 77.050,64.032 C76.488,64.524 76.967,66.467 76.615,67.070 C74.686,67.070 72.756,67.070 70.827,67.070 C70.811,67.022 70.795,66.974 70.779,66.926 C70.336,65.983 71.037,64.756 70.393,63.838 C69.358,63.645 67.276,63.504 67.064,64.514 C67.064,65.302 67.064,66.089 67.064,66.877 C66.984,66.958 66.903,67.038 66.823,67.118 C65.895,67.134 64.709,67.195 64.074,66.926 C64.058,64.787 64.041,62.648 64.025,60.510 C64.025,59.620 63.860,58.458 64.170,57.905 C64.796,57.674 66.489,57.978 67.064,57.568 C67.601,57.185 67.445,51.821 67.064,51.297 C66.356,51.058 64.425,51.449 64.074,50.718 C64.058,47.808 64.041,44.898 64.025,41.988 C64.445,41.331 66.092,41.937 66.823,41.699 C66.984,41.570 67.145,41.441 67.306,41.312 C67.415,40.355 67.542,38.784 67.064,38.177 C66.068,38.027 64.669,38.241 64.025,37.791 C63.994,36.459 63.716,35.303 64.556,34.801 C65.911,34.792 69.814,34.581 70.537,35.090 C70.537,37.261 70.537,39.432 70.537,41.602 C70.537,42.445 70.697,43.756 70.393,44.351 C69.370,44.480 67.830,44.252 67.112,44.786 C67.015,45.740 66.986,47.268 67.402,47.872 C67.737,47.974 68.126,48.073 68.512,48.017 C69.106,48.017 69.701,48.017 70.296,48.017 C71.103,47.605 70.607,45.607 70.779,44.689 ZM67.402,28.048 C67.347,27.960 67.265,25.562 67.402,25.347 C67.538,25.134 67.873,25.156 68.126,25.057 C68.727,25.050 70.163,24.922 70.393,25.298 C70.777,25.719 70.598,27.953 70.345,28.337 C69.426,28.363 67.768,28.575 67.402,28.048 ZM63.591,76.717 C63.103,76.998 61.537,76.912 61.083,76.669 C60.920,75.727 61.128,74.584 60.938,73.775 C60.200,73.264 58.100,73.792 57.706,73.003 C57.503,72.473 57.744,71.400 57.610,70.833 C56.827,70.362 52.001,70.319 51.242,70.833 C51.127,71.315 51.345,73.020 50.953,73.293 C50.585,73.598 45.016,73.498 44.634,73.244 C44.111,69.671 45.487,71.146 47.817,70.591 C48.227,69.873 48.158,67.890 47.721,67.263 C46.942,67.050 45.536,67.245 44.779,67.070 C44.527,66.522 44.289,64.471 44.875,64.080 C45.431,63.745 50.662,64.045 51.097,64.321 C51.275,65.062 50.794,66.791 51.436,67.166 C51.851,67.557 53.373,67.413 54.040,67.263 C54.920,66.001 53.892,62.800 54.474,61.137 C55.435,60.906 57.142,61.384 57.610,60.655 C57.951,60.128 57.637,58.616 57.803,57.905 C57.883,57.857 57.963,57.809 58.044,57.761 C58.687,57.729 59.330,57.697 59.974,57.664 C60.150,57.697 60.327,57.729 60.504,57.761 C60.616,57.921 60.729,58.082 60.842,58.243 C60.842,59.883 60.842,61.523 60.842,63.163 C60.776,63.432 60.593,63.631 60.359,63.742 C59.279,64.223 58.441,63.384 57.465,64.272 C57.402,64.904 57.226,66.756 57.610,67.118 C58.467,67.929 62.403,66.898 63.687,67.552 C64.010,69.614 63.784,72.217 63.784,74.450 C63.784,75.065 63.970,76.446 63.591,76.717 ZM57.851,31.617 C57.489,31.292 57.626,28.949 57.851,28.578 C58.678,28.527 60.589,28.764 60.938,28.192 C61.385,27.632 60.825,25.866 61.228,25.202 C61.420,25.154 61.614,25.105 61.807,25.057 C62.442,25.044 63.428,24.951 63.687,25.395 C63.981,25.865 63.767,31.463 63.543,31.617 C63.156,31.854 58.173,31.889 57.851,31.617 ZM57.706,34.704 C58.393,34.808 60.399,34.621 60.745,35.090 C60.990,35.487 60.862,37.306 60.745,37.888 C59.573,38.464 55.557,38.081 53.751,38.081 C52.933,38.081 51.803,38.300 51.484,37.791 C51.162,37.365 51.301,35.296 51.532,34.946 C52.253,34.810 53.337,34.890 54.088,34.704 C54.514,34.084 54.090,32.730 54.474,32.051 C54.555,32.019 54.635,31.987 54.716,31.955 C55.707,31.942 56.719,31.899 57.417,32.099 C57.433,32.132 57.449,32.164 57.465,32.196 C57.444,33.150 57.333,34.192 57.706,34.704 ZM51.339,28.000 C51.325,26.809 51.156,25.499 51.966,25.057 C53.078,25.056 57.102,24.908 57.417,25.443 C57.417,26.359 57.417,27.276 57.417,28.192 C56.316,28.581 51.986,28.477 51.339,28.000 ZM51.773,44.593 C52.605,44.562 53.864,44.413 54.137,44.978 C54.270,45.535 54.209,47.263 53.944,47.728 C53.190,47.843 52.075,47.923 51.532,47.583 C51.377,47.089 51.135,45.558 51.387,44.930 C51.516,44.818 51.644,44.705 51.773,44.593 ZM51.387,60.365 C51.093,59.677 51.414,58.020 51.773,57.713 C52.497,57.729 53.220,57.745 53.944,57.761 C54.212,57.923 54.156,60.309 54.040,60.703 C53.257,60.988 51.652,60.946 51.387,60.365 ZM51.484,53.950 C51.404,53.467 51.194,52.354 51.387,51.876 C51.731,51.116 53.021,51.465 53.944,51.297 C54.717,50.676 54.021,48.985 54.523,48.065 C55.718,48.087 56.981,48.132 57.658,47.631 C57.732,46.810 57.559,45.666 57.706,44.834 C57.835,44.753 57.963,44.673 58.092,44.593 C59.012,44.573 60.234,44.483 60.793,44.834 C60.810,46.731 60.826,48.628 60.842,50.525 C60.782,50.778 60.616,50.989 60.408,51.104 C59.574,51.309 58.348,50.886 57.754,51.297 C57.100,51.751 57.625,55.896 57.417,57.134 C57.178,57.440 54.756,57.840 54.426,57.278 C53.981,56.519 54.547,55.012 54.088,54.239 C53.346,54.072 52.087,54.268 51.484,53.950 ZM48.107,57.278 C47.742,56.650 47.964,54.635 48.348,54.336 C49.114,54.364 50.490,54.187 51.097,54.529 C51.207,55.315 51.214,56.567 51.049,57.278 C50.674,57.443 48.397,57.778 48.107,57.278 ZM25.000,25.000 L48.000,25.000 L48.000,48.000 L25.000,48.000 L25.000,25.000 ZM28.000,45.000 L45.000,45.000 L45.000,28.000 L28.000,28.000 L28.000,45.000 ZM31.000,31.000 L42.000,31.000 L42.000,42.000 L31.000,42.000 L31.000,31.000 ZM25.338,96.542 C27.413,96.558 29.488,96.574 31.561,96.590 C31.642,96.670 31.722,96.751 31.802,96.831 C31.815,97.709 31.949,99.123 31.610,99.725 C30.613,99.758 29.616,99.790 28.619,99.822 C28.538,99.934 28.458,100.047 28.378,100.159 C28.378,100.947 28.378,101.735 28.378,102.523 C28.772,103.034 31.760,102.984 31.948,102.427 C32.192,101.700 31.797,100.572 32.188,99.967 C32.872,100.013 34.063,99.817 34.601,100.063 C34.780,100.867 34.768,105.801 34.359,106.044 C33.961,106.248 32.788,106.092 32.140,106.092 C30.746,106.092 25.909,106.362 25.146,105.900 C24.784,104.071 25.098,101.119 25.098,99.002 C25.098,98.099 24.900,96.994 25.338,96.542 ZM25.338,112.363 C24.877,111.995 24.953,110.242 25.242,109.758 C26.062,109.726 26.883,109.694 27.702,109.662 C27.863,109.694 28.024,109.726 28.185,109.758 C28.422,110.211 28.503,111.834 28.185,112.363 C27.236,112.363 26.287,112.363 25.338,112.363 ZM28.088,119.116 C27.686,119.116 27.284,119.116 26.882,119.116 C26.352,119.100 25.821,119.084 25.290,119.068 C24.839,118.777 24.994,116.483 25.242,116.077 C25.274,116.061 25.307,116.045 25.338,116.029 C26.181,116.016 27.632,115.826 28.281,116.125 C28.430,116.813 28.541,118.864 28.088,119.116 ZM28.571,115.691 C28.480,114.798 28.365,113.286 28.619,112.604 C29.369,112.597 31.135,112.382 31.754,112.749 C31.873,113.316 31.972,115.197 31.658,115.595 C31.447,115.861 28.974,115.798 28.571,115.691 ZM48.000,145.000 L25.000,145.000 L25.000,122.000 L48.000,122.000 L48.000,145.000 ZM45.000,125.000 L28.000,125.000 L28.000,142.000 L45.000,142.000 L45.000,125.000 ZM42.000,139.000 L31.000,139.000 L31.000,128.000 L42.000,128.000 L42.000,139.000 ZM48.348,112.604 C49.125,112.573 50.850,112.409 51.146,112.894 C51.442,113.377 51.098,115.471 50.809,115.643 C50.615,115.766 48.340,115.869 48.155,115.691 C47.751,115.302 48.020,112.850 48.348,112.604 ZM51.918,102.812 C52.717,102.797 53.479,102.833 54.040,103.005 C54.253,103.660 54.256,105.495 53.944,106.044 C53.232,106.076 52.262,106.153 51.628,105.996 C51.354,105.590 51.119,103.855 51.387,103.198 C51.512,102.962 51.701,102.947 51.918,102.812 ZM51.773,135.419 C52.427,135.093 53.777,135.689 54.185,135.034 C54.633,134.538 54.226,132.805 54.474,132.091 C54.539,132.059 54.603,132.027 54.667,131.995 C55.649,131.979 60.441,131.836 60.697,132.236 C61.005,132.894 60.909,137.865 60.745,138.362 C60.199,138.624 59.208,138.555 58.382,138.555 C56.650,138.555 52.333,138.935 51.339,138.217 C51.317,137.332 51.158,135.718 51.773,135.419 ZM63.977,141.208 C64.374,140.385 63.859,136.841 64.074,135.709 C64.701,134.926 66.813,135.865 67.306,134.889 C67.609,134.317 67.287,132.838 67.450,132.139 C68.213,131.905 70.181,132.305 70.537,131.705 C71.010,131.204 70.875,129.122 70.296,128.859 C69.923,128.663 67.844,128.680 67.499,128.956 C66.773,129.335 67.307,131.018 66.872,131.705 C64.974,131.689 63.076,131.673 61.179,131.657 C60.938,130.924 60.915,129.699 61.276,129.149 C62.054,128.979 63.632,129.281 63.977,128.570 C64.277,128.003 63.925,126.657 64.074,126.013 C64.888,125.441 66.876,126.075 67.306,125.194 C67.405,124.906 67.374,124.562 67.354,124.229 C67.370,123.731 67.386,123.232 67.402,122.734 C67.128,121.664 65.309,122.228 64.315,122.010 C63.624,121.000 64.538,116.430 63.687,115.933 C63.120,115.606 61.906,115.756 61.179,115.691 C60.963,114.971 60.916,113.366 61.179,112.652 C61.991,112.635 63.679,112.785 63.977,112.218 C63.993,110.337 64.009,108.456 64.025,106.575 C64.583,105.698 66.816,106.827 67.306,105.851 C67.503,105.145 67.474,103.633 67.306,102.957 C66.608,102.521 64.518,103.002 64.074,102.378 C64.074,101.639 64.074,100.899 64.074,100.159 C64.202,100.095 64.331,100.031 64.460,99.967 C67.369,99.967 70.280,99.967 73.191,99.967 C74.270,99.967 76.083,99.758 76.760,100.111 C77.202,102.121 76.856,104.902 76.857,107.105 C76.857,107.950 77.045,109.160 76.423,109.469 C75.574,109.654 74.040,109.111 73.528,109.758 C73.173,110.208 73.489,111.497 73.383,112.122 C73.160,112.289 73.008,112.432 72.708,112.411 C72.229,112.377 71.104,112.588 70.827,112.315 C70.451,111.943 70.883,110.708 70.779,110.192 C70.650,109.967 70.521,109.742 70.393,109.517 C69.914,109.415 69.410,109.480 68.801,109.469 C66.948,109.436 66.757,110.216 67.161,112.170 C67.751,112.958 69.627,112.327 70.441,112.749 C70.671,113.635 70.447,114.921 70.634,115.739 C71.288,116.111 73.232,115.720 73.480,116.463 C73.464,119.518 73.448,122.573 73.432,125.628 C73.432,126.491 73.176,128.266 73.576,128.715 C73.910,129.213 75.839,129.163 76.615,129.004 C77.454,128.372 77.076,125.216 77.050,123.698 C77.042,123.250 76.877,122.933 77.098,122.637 C77.368,122.093 79.721,122.175 80.233,122.492 C80.268,123.532 80.218,124.787 80.475,125.531 C81.941,126.070 84.796,125.309 86.408,125.724 C86.599,126.200 86.899,128.423 86.359,128.763 C85.427,128.795 84.494,128.827 83.562,128.859 C82.996,129.248 82.820,131.552 83.562,131.898 C84.206,132.164 86.107,131.661 86.504,132.187 C86.815,132.905 86.734,137.859 86.504,138.458 C85.624,138.684 84.147,138.462 83.320,138.699 C83.147,139.200 83.343,141.046 82.935,141.304 C82.540,141.646 80.785,141.476 80.475,141.304 C80.385,140.476 80.639,139.250 80.233,138.651 C79.452,138.419 78.001,138.675 77.098,138.458 C76.941,137.744 77.348,136.116 76.953,135.419 C76.733,135.031 71.886,134.992 70.923,135.178 C70.104,135.811 71.063,137.927 70.296,138.458 C69.361,138.993 67.641,138.029 67.161,138.989 C66.991,139.601 67.043,140.801 67.161,141.304 C67.807,141.783 73.265,141.948 73.625,141.208 C73.924,140.627 73.511,139.409 73.866,138.844 C74.652,138.747 75.896,138.595 76.712,138.796 C76.728,138.844 76.744,138.892 76.760,138.940 C77.040,139.715 76.494,141.051 77.098,141.497 C77.853,141.997 79.498,141.388 80.233,141.786 C80.246,142.466 80.579,144.399 80.185,144.777 C79.910,145.041 75.786,144.874 75.024,144.874 C70.876,144.874 66.726,144.874 62.578,144.874 C61.090,144.874 58.576,145.195 57.658,144.536 C57.639,143.723 57.497,142.121 57.995,141.786 C59.005,141.113 63.374,142.327 63.977,141.208 ZM87.131,141.642 C87.863,141.619 89.685,141.423 89.978,141.883 C90.247,142.458 90.141,144.402 89.881,144.825 C88.916,144.825 87.951,144.825 86.987,144.825 C86.922,144.745 86.858,144.664 86.793,144.584 C86.602,143.884 86.713,142.404 86.890,141.786 C86.970,141.738 87.051,141.690 87.131,141.642 ZM92.823,122.492 C93.009,123.075 93.134,125.134 92.631,125.434 C92.245,125.665 90.507,125.454 90.363,125.242 C89.938,124.654 90.175,122.743 90.508,122.299 C91.270,122.281 92.360,122.193 92.823,122.492 ZM96.345,51.538 C96.477,52.507 96.553,56.842 96.200,57.423 C95.447,57.575 93.670,57.620 93.161,57.278 C93.029,56.488 92.870,52.031 93.258,51.394 C94.154,51.378 95.714,51.193 96.345,51.538 ZM78.014,80.431 C78.723,80.462 79.772,80.345 80.233,80.624 C80.364,81.269 80.387,82.643 80.137,83.133 C79.156,83.117 78.175,83.100 77.195,83.084 C76.922,82.916 76.857,80.996 77.098,80.673 C77.274,80.436 77.705,80.537 78.014,80.431 ZM80.475,86.460 C80.407,85.607 80.267,83.968 80.667,83.373 C80.732,83.357 80.796,83.341 80.860,83.325 C83.015,83.341 85.170,83.357 87.324,83.373 C88.337,83.373 89.436,83.172 90.026,83.567 C90.065,84.404 90.238,85.924 89.929,86.557 C87.662,86.573 85.395,86.589 83.128,86.605 C82.317,86.605 81.036,86.763 80.475,86.460 ZM91.666,83.133 C91.202,83.131 90.581,83.187 90.267,83.036 C90.180,82.288 90.038,80.808 90.508,80.431 C91.362,80.418 92.445,80.359 92.920,80.721 C92.986,82.447 93.389,83.136 91.666,83.133 ZM96.586,80.142 C96.329,79.359 96.429,77.520 96.827,77.006 C97.744,76.994 99.063,76.901 99.673,77.248 C99.863,77.996 99.845,79.275 99.721,80.190 C99.085,80.410 97.133,80.444 96.586,80.142 ZM100.156,83.084 C100.091,82.972 100.027,82.859 99.962,82.746 C99.823,82.234 99.916,80.844 100.156,80.479 C100.220,80.463 100.284,80.447 100.348,80.431 C101.024,80.447 101.699,80.463 102.374,80.479 C102.768,80.771 102.898,82.784 102.471,83.084 C102.108,83.275 100.557,83.196 100.156,83.084 ZM100.059,109.324 C99.947,108.329 99.740,106.825 100.300,106.285 C101.040,106.301 101.779,106.317 102.519,106.333 C102.753,106.754 102.904,108.797 102.567,109.276 C102.298,109.660 100.435,109.530 100.059,109.324 ZM89.688,129.052 C90.313,129.344 90.151,131.217 89.833,131.705 C89.065,131.786 87.462,131.918 86.793,131.609 C86.717,130.896 86.614,129.681 86.890,129.100 C86.987,129.068 87.083,129.036 87.179,129.004 C88.016,129.020 88.852,129.036 89.688,129.052 ZM80.475,103.150 C80.571,103.054 80.667,102.957 80.764,102.861 C81.482,102.677 82.431,102.908 83.079,102.764 C83.159,102.652 83.240,102.539 83.320,102.427 C83.534,101.574 83.147,100.607 83.513,100.063 C84.367,99.864 85.714,100.107 86.504,99.918 C86.896,99.346 86.927,97.615 86.745,96.687 C86.243,96.056 84.336,96.441 83.513,96.252 C83.175,95.734 83.220,94.104 83.369,93.358 C83.465,93.294 83.562,93.230 83.658,93.165 C84.534,92.949 85.990,93.343 86.697,92.876 C86.855,92.263 86.575,91.080 86.793,90.512 C86.874,90.416 86.954,90.319 87.035,90.223 C88.022,90.242 89.517,90.384 90.122,89.982 C90.327,89.136 89.907,87.186 90.556,86.750 C91.264,86.766 91.972,86.782 92.679,86.798 C93.103,87.182 92.920,88.531 92.920,89.306 C92.936,91.621 92.952,93.937 92.968,96.252 C93.552,96.672 95.427,96.668 96.296,96.445 C96.618,95.943 96.538,94.972 96.538,94.130 C96.554,91.735 96.570,89.338 96.586,86.943 C96.666,86.895 96.746,86.847 96.827,86.798 C97.278,86.678 99.493,86.649 99.721,86.991 C100.063,87.503 99.610,91.946 99.866,92.876 C100.513,93.198 101.771,92.994 102.519,93.165 C102.769,93.738 102.341,95.976 102.905,96.397 C103.473,96.798 105.206,96.498 105.992,96.590 C106.008,96.622 106.024,96.654 106.040,96.687 C106.160,97.256 106.293,99.404 105.896,99.677 C105.173,99.998 103.537,99.456 103.001,99.870 C102.178,100.295 103.123,102.082 102.471,102.571 C101.436,103.173 96.969,102.090 96.441,102.957 C96.144,103.504 96.322,108.805 96.489,109.469 C97.154,109.933 98.619,109.577 99.673,109.758 C99.901,110.397 99.449,111.883 99.914,112.411 C100.315,112.865 101.763,112.527 102.519,112.652 C102.747,113.065 102.925,115.389 102.471,115.691 C101.844,116.005 100.412,115.382 99.962,116.029 C99.161,117.111 100.320,120.827 99.528,122.010 C98.770,122.156 97.381,122.213 96.731,122.058 C96.383,121.266 96.692,119.849 96.200,119.164 C94.319,119.148 92.438,119.132 90.556,119.116 C90.078,118.813 90.061,113.660 90.315,112.652 C90.943,112.574 92.385,112.483 92.871,112.749 C92.978,113.646 92.830,114.918 93.016,115.739 C93.611,116.170 95.733,116.202 96.393,115.788 C96.590,115.074 96.812,112.850 96.248,112.507 C95.557,112.029 93.789,112.641 93.113,112.218 C93.120,111.468 93.310,109.887 92.775,109.565 C92.401,109.240 90.571,109.400 90.218,109.614 C89.974,110.315 90.257,111.728 89.881,112.363 C88.974,112.534 84.014,112.556 83.417,112.267 C83.068,110.558 83.717,107.973 83.224,106.285 C82.640,106.049 81.226,106.301 80.571,105.948 C80.399,105.424 80.236,103.739 80.475,103.150 ZM90.267,102.764 C90.920,102.935 92.455,102.966 92.968,102.668 C93.197,102.060 93.318,100.188 92.775,99.870 C92.414,99.627 91.244,99.771 90.653,99.725 C90.492,99.806 90.331,99.886 90.170,99.967 C89.932,100.636 89.901,102.235 90.267,102.764 ZM85.877,119.309 C86.054,119.341 86.231,119.373 86.408,119.405 C86.638,120.004 86.668,121.183 86.504,121.914 C86.408,121.978 86.311,122.042 86.215,122.106 C85.779,122.205 80.799,122.093 80.523,121.962 C80.365,121.256 80.359,120.153 80.523,119.453 C81.912,118.976 84.521,119.837 85.877,119.309 ZM80.716,112.604 C81.446,112.589 82.590,112.479 83.079,112.749 C83.246,113.613 83.201,114.886 83.031,115.595 C82.806,115.754 80.761,115.951 80.523,115.643 C80.207,115.235 80.492,112.819 80.716,112.604 ZM77.339,116.077 C77.548,116.045 77.757,116.013 77.966,115.981 C78.549,115.988 79.715,115.907 80.185,116.125 C80.356,116.899 80.345,118.242 80.185,119.019 C80.137,119.036 80.089,119.052 80.040,119.068 C79.484,119.309 77.393,119.213 77.146,118.875 C76.937,118.602 76.855,116.615 77.098,116.318 C77.178,116.238 77.259,116.157 77.339,116.077 ZM77.291,96.542 C78.154,96.526 79.631,96.357 80.233,96.687 C80.427,97.365 80.395,99.255 80.040,99.774 C79.386,99.900 77.653,99.899 77.098,99.629 C76.979,98.813 76.923,97.412 77.098,96.638 C77.162,96.606 77.226,96.574 77.291,96.542 ZM70.441,93.262 C70.652,93.920 70.650,95.545 70.441,96.204 C69.750,96.579 67.906,96.451 67.354,96.060 C67.338,95.207 67.174,93.758 67.499,93.165 C67.707,93.133 67.917,93.101 68.126,93.069 C68.854,93.070 69.973,92.986 70.441,93.262 ZM63.687,93.310 C64.000,93.745 63.843,98.958 63.687,99.629 C63.135,99.864 61.948,99.819 61.324,99.677 C60.909,99.331 60.867,94.169 61.131,93.214 C61.372,93.165 61.614,93.117 61.855,93.069 C62.374,93.063 63.446,92.961 63.687,93.310 ZM51.339,86.267 C51.371,85.384 51.403,84.499 51.436,83.615 C51.516,83.550 51.596,83.486 51.676,83.422 C51.773,83.390 51.870,83.357 51.966,83.325 C52.653,83.314 53.532,83.248 54.040,83.518 C54.168,84.090 54.328,86.060 53.992,86.460 C53.517,86.969 51.627,86.523 51.339,86.267 ZM54.667,106.285 C55.676,106.264 56.863,106.198 57.465,106.575 C57.557,107.017 57.622,109.163 57.272,109.372 C56.806,109.404 56.340,109.437 55.873,109.469 C55.210,109.469 54.861,109.542 54.474,109.276 C54.281,108.629 54.212,107.398 54.378,106.526 C54.474,106.446 54.571,106.366 54.667,106.285 ZM57.754,112.025 C57.528,111.504 57.671,110.278 57.851,109.807 C58.558,109.758 59.266,109.710 59.974,109.662 C61.143,109.693 61.030,112.030 60.600,112.315 C59.995,112.670 57.973,112.485 57.754,112.025 ZM53.944,125.821 C54.240,126.578 54.303,130.541 54.040,131.609 C53.992,131.625 53.944,131.641 53.896,131.657 C52.979,132.050 51.743,131.650 51.339,131.271 C51.339,129.599 51.339,127.927 51.339,126.254 C51.454,125.862 51.772,125.807 52.111,125.628 C52.695,125.692 53.460,125.685 53.944,125.821 ZM51.870,119.357 C52.773,119.372 53.501,119.406 54.137,119.164 C54.578,118.212 54.018,116.651 54.764,115.981 C55.594,115.978 60.455,115.915 60.697,116.222 C60.828,116.459 60.793,116.907 60.793,117.283 C60.797,120.658 59.407,118.268 57.610,119.405 C57.414,119.976 57.710,121.291 57.369,121.769 C57.101,122.144 52.686,122.224 51.821,122.058 C51.023,121.525 51.263,119.869 51.870,119.357 ZM47.769,83.567 C47.870,84.491 47.988,85.990 47.576,86.557 C46.611,86.557 45.647,86.557 44.682,86.557 C44.666,86.509 44.650,86.460 44.634,86.412 C44.634,85.480 44.634,84.547 44.634,83.615 C44.730,83.518 44.827,83.422 44.923,83.325 C45.824,83.310 47.181,83.196 47.769,83.567 ZM41.450,64.321 C41.587,64.924 41.585,66.281 41.450,66.877 C41.040,67.151 39.190,67.356 38.508,67.070 C38.476,67.038 38.444,67.006 38.411,66.974 C38.044,66.460 38.200,64.430 38.508,64.032 C39.518,64.010 40.867,63.901 41.450,64.321 ZM38.363,82.988 C38.093,82.565 38.216,80.976 38.363,80.528 C38.379,80.512 38.395,80.496 38.411,80.479 C38.492,80.463 38.572,80.447 38.652,80.431 C39.561,80.431 40.652,80.370 41.402,80.576 C41.636,81.241 41.590,82.675 41.305,83.084 C40.357,83.084 39.408,83.084 38.459,83.084 C38.427,83.052 38.395,83.020 38.363,82.988 ZM41.740,96.108 C41.482,95.497 41.619,93.557 41.884,93.165 C41.965,93.133 42.045,93.101 42.125,93.069 C42.849,93.101 43.573,93.133 44.296,93.165 C44.515,93.748 44.565,95.813 44.248,96.300 C43.623,96.436 42.012,96.578 41.740,96.108 ZM47.721,116.222 C48.059,116.748 47.840,118.629 47.625,118.971 C47.117,119.118 45.527,119.333 44.971,119.116 C44.208,118.764 44.479,116.390 44.971,115.981 C45.574,115.970 47.431,115.847 47.721,116.222 ZM41.450,112.749 C41.578,113.617 41.603,115.140 41.209,115.691 C40.469,115.777 38.975,115.962 38.363,115.643 C38.240,114.883 38.055,113.119 38.508,112.604 C39.269,112.631 40.793,112.418 41.450,112.749 ZM38.315,103.102 C38.411,103.005 38.508,102.909 38.604,102.812 C40.871,102.812 43.139,102.812 45.406,102.812 C46.204,102.812 47.453,102.650 47.769,103.150 C48.006,103.717 47.878,105.203 47.721,105.851 C47.070,106.254 45.302,105.762 44.730,106.189 C44.074,106.523 44.300,109.020 44.634,109.565 C45.321,109.834 46.739,109.630 47.625,109.807 C47.933,110.257 47.948,111.808 47.625,112.363 C46.426,112.451 42.532,112.707 41.740,112.218 C41.708,110.273 41.675,108.327 41.643,106.382 C41.038,105.998 38.662,106.288 38.411,105.900 C38.151,105.586 38.106,103.430 38.315,103.102 ZM35.180,96.493 C37.049,96.973 39.581,96.203 41.402,96.638 C41.634,97.306 41.600,99.176 41.257,99.677 C39.500,99.929 36.615,99.980 34.938,99.725 C34.922,99.693 34.906,99.661 34.890,99.629 C34.734,98.847 34.701,97.409 34.841,96.735 C34.954,96.654 35.067,96.574 35.180,96.493 ZM38.073,116.173 C38.151,116.846 38.303,118.734 37.832,119.019 C37.602,119.195 36.968,119.116 36.578,119.116 C36.080,119.116 35.581,119.116 35.083,119.116 C34.483,118.750 34.837,116.319 35.131,115.981 C35.940,115.976 37.599,115.876 38.073,116.173 ZM32.140,109.758 C32.205,109.726 32.269,109.694 32.333,109.662 C34.198,109.694 36.064,109.726 37.929,109.758 C38.168,110.234 38.237,111.705 37.929,112.363 C37.074,112.483 32.249,112.513 32.044,112.218 C31.755,111.546 31.908,110.218 32.140,109.758 ZM44.296,86.847 C44.548,87.534 44.490,89.286 44.296,89.982 C44.264,89.998 44.232,90.014 44.200,90.030 C42.365,90.020 39.958,89.727 38.315,90.127 C37.967,90.677 38.385,92.572 37.784,92.876 C37.058,93.171 32.344,92.965 31.948,92.683 C31.948,92.651 31.948,92.619 31.948,92.586 C31.792,92.019 31.885,90.660 32.092,90.271 C32.935,90.180 34.176,90.337 34.745,89.982 C34.892,89.157 34.949,87.667 34.745,86.847 C34.145,86.452 32.977,86.859 32.188,86.557 C31.780,86.291 31.783,80.803 32.285,80.431 C32.844,80.416 34.329,80.309 34.552,80.624 C34.949,81.202 34.399,82.524 34.697,83.084 C35.060,83.766 37.364,83.171 38.025,83.518 C38.184,84.460 37.850,85.950 38.266,86.654 C39.910,87.208 42.472,86.521 44.296,86.847 ZM37.977,77.296 C38.288,77.850 38.133,79.435 38.025,80.190 C37.993,80.206 37.961,80.222 37.929,80.238 C37.210,80.382 35.380,80.460 34.841,80.142 C34.725,79.282 34.722,77.974 34.890,77.151 C34.986,77.103 35.083,77.055 35.180,77.006 C35.818,77.002 37.711,76.869 37.977,77.296 ZM25.387,83.373 C25.596,83.357 25.805,83.341 26.014,83.325 C26.673,83.341 27.332,83.357 27.992,83.373 C28.088,83.470 28.185,83.567 28.281,83.663 C28.475,84.321 28.473,86.071 28.185,86.557 C27.694,86.659 25.264,86.701 25.098,86.412 C24.935,86.131 25.069,83.915 25.146,83.567 C25.226,83.502 25.307,83.438 25.387,83.373 ZM25.338,64.032 C26.303,64.047 27.268,64.063 28.233,64.080 C28.249,64.127 28.265,64.176 28.281,64.224 C28.313,68.388 28.346,72.553 28.378,76.717 C28.490,76.814 28.603,76.910 28.715,77.006 C29.579,77.220 30.996,76.834 31.706,77.199 C31.877,77.973 31.875,79.453 31.706,80.190 C30.917,80.471 26.267,80.419 25.290,80.238 C25.210,80.158 25.130,80.078 25.049,79.997 C25.065,76.171 25.081,72.343 25.098,68.517 C25.098,67.155 24.776,64.843 25.338,64.032 ZM38.025,67.504 C38.202,68.683 38.280,72.803 37.832,73.437 C36.884,73.453 35.935,73.469 34.986,73.485 C34.458,74.223 34.798,75.782 34.601,76.765 C33.951,76.951 32.629,76.994 32.044,76.717 C31.847,75.878 31.948,74.629 31.948,73.630 C31.948,71.572 31.948,69.514 31.948,67.456 C31.948,66.239 32.169,64.628 31.706,63.887 C30.894,63.703 29.263,64.020 28.571,63.645 C28.463,62.888 28.437,61.896 28.619,61.186 C28.715,61.121 28.812,61.057 28.908,60.993 C30.982,61.008 33.057,61.024 35.131,61.041 C36.055,61.041 37.210,60.953 37.977,61.137 C38.212,61.740 38.219,63.210 37.929,63.742 C37.016,63.901 35.715,63.653 34.938,63.838 C34.559,64.360 34.336,66.971 35.034,67.311 C35.705,67.655 37.304,67.138 38.025,67.504 ZM32.044,53.950 C31.923,52.971 31.770,51.896 32.333,51.345 C32.986,51.348 33.956,51.309 34.456,51.442 C34.625,51.755 34.960,53.403 34.601,53.950 C34.312,54.389 32.301,54.113 32.044,53.950 ZM37.977,54.384 C38.219,54.879 38.282,57.152 37.832,57.423 C37.216,57.683 35.284,57.536 34.938,57.326 C34.749,56.647 34.627,54.916 34.986,54.336 C35.983,54.352 36.980,54.368 37.977,54.384 ZM41.016,54.095 C40.165,54.095 38.927,54.285 38.363,53.999 C38.151,53.062 38.133,51.849 38.652,51.345 C40.370,51.361 46.739,51.067 47.721,51.635 C47.910,52.166 47.918,53.539 47.625,54.047 C45.422,54.063 43.219,54.079 41.016,54.095 ZM47.769,60.558 C47.209,60.916 46.029,60.800 45.116,60.800 C42.881,60.784 40.646,60.767 38.411,60.751 C38.149,60.093 38.118,58.223 38.508,57.713 C40.678,57.713 42.849,57.713 45.020,57.713 C45.897,57.713 47.201,57.563 47.769,57.905 C47.876,58.686 47.925,59.918 47.769,60.558 ZM47.721,77.392 C47.995,77.928 47.891,79.476 47.769,80.094 C47.737,80.142 47.705,80.190 47.673,80.238 C46.447,80.327 42.642,80.605 41.740,80.142 C41.492,78.846 41.506,74.416 42.029,73.678 C42.093,73.662 42.158,73.646 42.222,73.630 C42.816,73.643 43.918,73.588 44.344,73.823 C44.456,74.788 44.200,76.265 44.634,76.958 C45.465,77.136 47.374,76.735 47.721,77.392 ZM48.155,80.528 C48.252,80.496 48.348,80.463 48.445,80.431 C49.155,80.413 50.818,80.269 51.097,80.721 C51.310,81.217 51.201,82.729 51.001,83.084 C50.053,83.084 49.103,83.084 48.155,83.084 C47.921,82.575 47.887,81.031 48.155,80.528 ZM54.040,90.416 C54.357,91.027 53.935,92.319 54.281,92.924 C54.815,93.105 57.337,93.018 57.465,93.358 C57.465,93.953 57.465,94.548 57.465,95.143 C57.465,95.583 57.471,95.952 57.320,96.204 C55.784,96.605 52.381,95.825 51.146,96.735 C51.146,96.767 51.146,96.799 51.146,96.831 C50.922,97.773 51.379,98.975 50.904,99.677 C50.338,99.777 45.152,100.003 44.779,99.725 C44.370,99.422 44.502,96.962 44.682,96.590 C45.648,96.425 46.969,96.607 47.817,96.397 C48.077,95.939 48.286,93.717 47.914,93.262 C47.557,92.608 45.535,93.015 44.682,92.876 C44.666,92.828 44.650,92.779 44.634,92.731 C44.397,92.225 44.505,90.486 44.827,90.223 C47.126,90.223 49.426,90.223 51.725,90.223 C52.354,90.223 53.755,90.037 54.040,90.416 ZM67.306,70.157 C67.305,69.365 67.277,68.200 67.450,67.504 C67.595,67.456 67.740,67.408 67.885,67.359 C68.705,67.375 69.525,67.392 70.345,67.408 C70.632,68.038 70.699,69.885 70.345,70.495 C69.506,70.635 67.812,70.672 67.306,70.157 ZM70.345,76.814 C69.429,76.830 68.101,77.033 67.402,76.669 C67.250,75.949 67.157,74.183 67.595,73.871 C67.707,73.807 67.820,73.743 67.933,73.678 C68.737,73.694 69.541,73.711 70.345,73.727 C70.632,74.356 70.699,76.203 70.345,76.814 ZM70.827,73.389 C70.691,73.011 70.504,71.117 70.923,70.833 C71.470,70.784 72.017,70.736 72.564,70.688 C72.788,70.736 73.014,70.784 73.239,70.833 C73.522,71.363 73.537,72.425 73.383,73.196 C72.929,73.521 71.566,73.537 70.827,73.389 ZM73.432,82.891 C72.403,83.505 68.147,83.133 66.389,83.133 C65.406,83.132 64.165,82.945 63.832,83.615 C63.616,84.424 64.033,85.886 63.591,86.557 C62.856,86.615 61.237,86.412 60.890,86.895 C60.328,87.678 61.195,91.924 60.649,92.876 C59.879,93.031 58.246,93.044 57.706,92.731 C57.690,91.943 57.674,91.155 57.658,90.368 C56.894,89.841 55.186,90.330 54.378,89.886 C54.257,89.311 54.123,87.122 54.523,86.847 C55.367,86.485 57.218,87.241 57.658,86.364 C57.933,85.814 57.756,84.040 57.610,83.470 C56.878,82.999 55.225,83.441 54.378,82.988 C54.314,82.122 54.430,80.986 54.137,80.431 C53.447,80.304 52.216,80.357 51.484,80.190 C51.159,79.433 51.283,74.065 51.773,73.678 C52.507,73.651 53.686,73.539 53.992,73.968 C54.422,74.620 53.721,76.083 54.185,76.765 C54.615,77.397 59.701,76.882 60.697,77.151 C60.957,77.963 60.682,79.386 60.842,80.142 C61.371,80.540 63.620,80.801 63.977,80.046 C64.222,79.497 63.671,77.536 64.219,77.151 C64.764,76.856 66.564,76.959 67.064,77.199 C67.096,78.180 67.129,79.161 67.161,80.142 C67.775,80.585 69.543,80.608 70.489,80.383 C70.836,79.839 70.518,77.449 70.923,77.151 C71.449,76.855 72.876,77.023 73.335,77.151 C73.573,77.820 73.570,82.133 73.432,82.891 ZM73.721,76.717 C73.721,75.768 73.721,74.820 73.721,73.871 C73.850,73.807 73.979,73.743 74.107,73.678 C74.959,73.694 75.812,73.711 76.664,73.727 C76.966,74.424 77.002,76.220 76.664,76.765 C75.893,76.982 74.469,76.907 73.721,76.717 ZM80.282,88.245 C80.282,89.434 80.532,92.183 80.137,92.876 C79.108,93.044 77.590,92.721 76.905,93.214 C76.682,94.163 76.970,95.370 76.760,96.252 C76.177,96.526 74.052,96.531 73.721,96.060 C73.138,94.524 74.246,91.308 73.383,90.127 C72.322,89.944 67.495,89.794 67.161,90.464 C66.912,91.010 67.296,92.309 66.968,92.876 C66.202,93.030 64.559,93.046 64.025,92.731 C64.015,91.593 63.805,87.477 64.170,86.847 C64.331,86.815 64.492,86.782 64.652,86.750 C69.814,86.766 74.976,86.782 80.137,86.798 C80.396,86.956 80.282,87.842 80.282,88.245 ZM83.465,47.535 C83.228,47.189 83.176,45.339 83.369,44.882 C83.465,44.786 83.562,44.689 83.658,44.593 C84.413,44.571 86.237,44.369 86.552,44.834 C86.860,45.429 86.613,47.414 86.311,47.824 C85.692,47.867 83.760,48.012 83.465,47.535 ZM97.551,70.736 C98.293,70.736 99.569,70.917 99.866,70.446 C99.935,70.346 100.121,64.975 100.011,64.465 C99.947,64.170 99.776,64.035 99.625,63.838 C98.760,63.775 97.198,63.998 96.634,63.597 C96.456,62.641 96.269,58.544 96.731,57.713 C98.644,57.729 100.558,57.745 102.471,57.761 C102.838,58.003 102.664,60.566 102.664,61.378 C102.664,64.240 102.664,67.103 102.664,69.964 C102.664,71.125 102.889,72.773 102.423,73.437 C99.384,73.453 96.344,73.469 93.306,73.485 C92.555,74.072 93.196,75.979 92.775,76.765 C91.992,76.951 90.444,76.542 90.122,77.199 C89.851,77.860 90.311,79.671 90.026,80.142 C89.858,80.418 88.814,80.287 88.385,80.287 C86.945,80.286 84.231,80.656 83.320,79.997 C83.348,79.160 83.639,77.312 83.031,76.958 C82.502,76.641 81.242,76.922 80.571,76.765 C80.230,75.959 80.882,73.904 80.040,73.485 C79.092,73.469 78.143,73.453 77.195,73.437 C77.178,73.389 77.162,73.341 77.146,73.293 C76.854,72.964 76.919,71.238 77.195,70.929 C77.714,70.389 79.756,70.871 80.330,70.543 C80.915,68.745 80.090,65.893 80.523,64.080 C82.500,64.048 84.478,64.015 86.456,63.983 C86.879,63.371 87.080,57.814 86.408,57.471 C85.741,57.131 83.953,57.898 83.465,57.278 C83.076,56.785 83.470,54.895 83.079,54.192 C82.468,54.105 80.807,54.294 80.523,53.902 C80.279,53.379 80.385,52.117 80.523,51.587 C81.760,50.816 84.360,51.910 85.829,51.345 C85.974,51.361 86.118,51.378 86.263,51.394 C86.964,51.873 86.212,53.708 86.890,54.192 C87.470,54.631 89.229,54.101 89.978,54.481 C90.422,56.222 89.415,59.530 90.315,60.993 C90.846,61.120 92.486,60.780 92.775,61.186 C92.971,61.460 93.078,66.345 92.920,66.781 C92.807,66.893 92.695,67.006 92.583,67.118 C91.986,67.247 90.925,67.035 90.363,67.166 C89.917,67.777 89.816,69.915 90.267,70.640 C91.746,71.068 95.598,70.736 97.551,70.736 ZM86.504,70.591 C86.263,70.559 86.022,70.527 85.781,70.495 C84.993,70.543 84.205,70.591 83.417,70.640 C83.018,71.215 82.982,72.900 83.369,73.534 C84.118,73.791 85.856,73.787 86.552,73.582 C86.850,72.855 86.956,71.250 86.504,70.591 ZM102.519,47.969 C103.067,47.189 102.529,45.446 103.050,44.593 C103.999,44.609 104.947,44.625 105.896,44.641 C105.960,44.737 106.024,44.834 106.089,44.930 C106.105,46.811 106.121,48.693 106.137,50.574 C106.024,50.751 105.912,50.927 105.799,51.104 C104.978,51.108 103.106,50.917 102.809,51.442 C102.412,52.138 102.848,53.335 102.471,54.047 C101.926,54.221 100.780,54.211 100.252,54.095 C99.854,53.465 100.290,52.080 99.866,51.442 C99.474,50.851 97.505,51.242 96.682,51.104 C96.355,50.231 96.369,45.178 96.731,44.593 C97.679,44.609 98.628,44.625 99.577,44.641 C99.657,44.737 99.738,44.834 99.818,44.930 C99.787,45.968 99.596,47.173 100.011,47.872 C100.559,48.104 101.862,48.121 102.519,47.969 ZM112.311,77.248 C112.526,77.993 112.541,79.764 112.215,80.238 C110.965,80.331 107.060,80.575 106.282,80.046 C106.165,78.672 106.021,74.760 106.523,73.727 C106.587,73.694 106.652,73.662 106.716,73.630 C107.430,73.631 108.997,73.523 109.321,73.968 C109.839,74.691 109.168,76.148 109.755,76.958 C110.533,77.037 111.743,76.921 112.311,77.248 ZM122.490,60.751 C122.185,59.814 122.039,54.829 122.683,54.336 C123.663,54.337 124.872,54.245 125.480,54.722 C125.487,55.649 125.574,60.406 125.191,60.703 C124.657,60.999 123.136,60.820 122.490,60.751 ZM128.664,70.881 C129.139,72.316 128.809,75.334 128.809,77.103 C128.809,78.068 128.809,79.032 128.809,79.997 C128.368,80.520 126.270,80.280 125.577,80.479 C125.333,81.141 125.590,82.413 125.288,83.084 C124.021,83.223 119.614,82.789 119.209,83.567 C118.828,84.279 119.251,85.777 119.017,86.509 C118.399,86.723 116.608,86.743 116.074,86.460 C116.058,84.226 116.041,81.991 116.026,79.756 C116.026,78.803 115.860,77.771 116.219,77.151 C116.945,76.937 118.313,77.097 119.113,76.910 C119.564,76.298 119.510,74.277 119.113,73.630 C118.400,73.382 117.072,73.552 116.315,73.389 C115.404,72.202 116.600,68.575 115.688,67.263 C114.951,67.070 113.253,67.324 112.649,66.926 C112.616,65.996 112.884,64.211 112.215,63.887 C111.489,63.506 110.068,63.784 109.562,64.080 C109.392,64.863 109.327,66.292 109.562,67.070 C110.298,67.467 111.644,67.121 112.360,67.552 C112.376,68.453 112.392,69.354 112.408,70.253 C112.031,70.686 107.465,70.675 106.523,70.495 C106.099,69.887 106.282,68.367 106.282,67.263 C106.282,65.141 106.282,63.018 106.282,60.896 C106.282,59.860 106.191,58.550 106.475,57.809 C106.555,57.761 106.636,57.713 106.716,57.664 C107.557,57.674 108.807,57.640 109.369,57.954 C109.644,58.754 109.246,60.145 109.658,60.848 C110.598,61.262 114.494,61.186 115.640,60.945 C116.508,60.258 115.551,58.481 116.219,57.857 C116.769,57.340 118.912,57.727 119.113,58.195 C119.372,58.874 119.039,60.101 119.209,60.751 C119.908,61.120 121.236,60.834 122.007,61.233 C122.185,62.178 121.750,63.754 122.683,64.032 C123.562,64.293 124.677,63.858 125.336,64.224 C125.496,65.312 125.201,70.208 125.577,70.543 C126.174,71.074 128.023,70.545 128.664,70.881 ZM122.248,67.552 C121.836,67.006 120.809,67.095 119.837,67.118 C119.615,67.232 119.432,67.241 119.306,67.456 C118.867,67.899 118.929,70.344 119.451,70.591 C119.764,70.782 120.342,70.736 120.849,70.736 C122.329,70.735 122.305,70.449 122.297,69.193 C122.293,68.615 122.368,68.051 122.248,67.552 ZM125.191,73.534 C124.561,73.326 123.475,73.430 122.683,73.437 C122.503,73.553 122.364,73.592 122.248,73.775 C121.902,74.238 121.963,75.963 122.104,76.669 C122.761,77.179 124.450,77.154 125.432,76.910 C125.892,76.297 125.951,73.863 125.191,73.534 ZM129.050,58.002 C129.227,57.906 129.404,57.809 129.580,57.713 C130.320,57.695 131.192,57.661 131.655,57.905 C131.782,58.684 131.849,63.315 131.558,63.597 C131.248,63.898 126.037,63.930 125.770,63.500 C125.526,63.000 125.653,61.756 125.770,61.233 C126.638,60.857 128.554,61.432 128.953,60.607 C129.306,59.951 128.921,58.621 129.050,58.002 ZM92.871,135.226 C93.594,133.751 92.815,130.760 93.209,129.149 C94.230,128.707 99.296,129.558 99.866,128.715 C100.363,127.940 99.500,126.225 100.300,125.724 C100.686,125.512 102.023,125.643 102.567,125.724 C102.878,126.638 102.229,128.582 103.098,129.004 C103.861,129.214 105.282,129.097 105.992,128.956 C106.497,128.292 106.443,126.218 105.992,125.531 C105.385,125.445 103.236,125.641 102.953,125.242 C102.532,124.480 102.809,119.587 102.809,118.248 C102.809,117.541 102.655,116.360 103.098,116.077 C103.881,115.776 105.309,116.061 106.040,115.884 C106.689,114.657 106.282,110.392 106.282,108.456 C106.282,107.564 106.180,106.821 106.523,106.333 C107.458,106.177 108.767,106.369 109.514,106.092 C109.877,105.344 109.791,103.447 109.514,102.812 C108.658,102.662 106.950,102.845 106.330,102.475 C106.330,101.719 106.330,100.963 106.330,100.208 C106.410,100.143 106.491,100.079 106.571,100.015 C107.445,99.836 108.731,100.060 109.514,99.774 C109.817,99.154 109.820,97.393 109.658,96.687 C108.872,96.151 107.058,96.655 106.282,96.156 C106.265,94.211 106.250,92.264 106.233,90.319 C105.483,89.805 104.059,90.373 103.146,90.030 C103.050,89.934 102.953,89.837 102.857,89.741 C102.857,88.840 102.857,87.940 102.857,87.040 C102.953,86.959 103.050,86.879 103.146,86.798 C103.923,86.605 105.232,86.864 106.040,86.702 C106.551,85.942 105.972,84.012 106.668,83.325 C107.582,83.308 108.823,83.220 109.369,83.615 C109.499,84.268 109.180,86.284 109.706,86.605 C110.657,87.272 115.190,86.300 115.688,86.991 C116.072,87.718 115.626,89.224 115.881,89.982 C116.531,90.318 118.953,90.511 119.306,89.789 C119.644,89.128 119.123,87.551 119.499,86.847 C120.256,86.695 121.215,86.729 121.911,86.895 C122.345,87.623 121.776,88.725 122.056,89.692 C122.309,90.569 124.761,90.264 125.529,90.030 C126.043,88.621 125.153,84.886 125.818,83.470 C126.607,83.240 131.396,83.208 131.655,83.711 C131.879,84.221 131.837,85.763 131.751,86.267 C131.259,86.857 129.499,86.478 128.857,86.895 C128.841,88.808 128.824,90.722 128.809,92.635 C128.297,93.172 126.316,92.867 125.577,93.117 C124.938,94.499 125.693,97.920 125.336,99.532 C124.661,99.962 123.091,99.628 122.248,99.967 C122.069,100.376 121.850,101.773 122.104,102.378 C122.200,102.507 122.297,102.635 122.393,102.764 C123.116,102.819 125.039,102.579 125.384,103.150 C125.594,103.456 125.432,105.797 125.432,106.478 C125.432,108.536 125.432,110.595 125.432,112.652 C125.432,113.761 125.328,114.929 125.577,115.739 C126.372,116.079 128.008,116.176 128.809,115.836 C129.106,115.058 128.870,113.803 129.002,112.942 C129.082,112.845 129.163,112.749 129.243,112.652 C130.064,112.653 131.531,112.796 131.848,112.267 C132.207,111.757 131.958,110.862 131.896,110.240 C132.009,110.096 132.121,109.951 132.234,109.807 C133.747,109.477 137.471,110.171 138.601,109.469 C138.741,108.847 138.489,106.792 138.890,106.430 C138.922,106.382 138.955,106.333 138.987,106.285 C139.778,106.292 140.656,106.358 141.254,106.237 C142.105,105.589 141.335,103.758 141.784,102.957 C142.576,102.810 144.126,102.641 144.824,103.005 C144.840,111.622 144.856,120.242 144.872,128.859 C144.872,131.094 144.872,133.329 144.872,135.564 C144.872,136.513 145.032,137.874 144.727,138.458 C144.014,138.685 142.458,138.628 141.736,138.458 C141.445,137.574 142.064,135.605 141.302,135.178 C140.792,134.892 139.605,135.192 138.938,135.082 C138.576,134.570 138.581,129.666 138.987,129.052 C139.931,129.070 140.930,129.112 141.543,128.763 C141.625,128.442 141.687,128.110 141.640,127.701 C141.542,126.851 141.905,125.943 141.302,125.531 C140.415,124.925 136.542,125.912 135.369,125.145 C135.286,124.710 135.117,122.789 135.417,122.492 C136.068,121.850 140.530,122.721 141.543,122.010 C141.909,120.015 141.640,117.183 141.640,114.871 C141.640,113.894 141.918,112.789 141.206,112.459 C140.313,112.220 136.214,112.300 135.369,112.507 C134.955,113.126 135.476,115.265 134.790,115.691 C134.163,116.085 132.377,115.358 131.848,116.077 C131.461,116.603 131.703,118.173 131.703,119.116 C131.719,122.251 131.735,125.387 131.751,128.522 C132.330,129.671 134.115,128.525 134.887,129.100 C135.056,129.227 135.348,134.065 135.176,134.647 C135.032,134.792 134.887,134.937 134.742,135.082 C133.849,135.415 132.461,134.750 131.896,135.371 C131.261,136.069 132.087,140.043 131.751,141.015 C131.474,141.621 129.614,141.589 129.050,141.256 C128.923,140.521 129.124,139.546 128.953,138.844 C128.324,138.428 126.083,138.792 125.722,138.265 C125.418,137.860 125.718,135.745 125.915,135.467 C126.803,135.238 128.614,135.702 129.002,134.841 C129.018,134.326 129.034,133.811 129.050,133.297 C129.050,131.042 127.348,131.705 125.288,131.705 C124.420,131.705 122.755,131.486 122.297,131.946 C121.802,132.443 122.056,134.349 122.056,135.275 C122.072,138.361 122.088,141.449 122.104,144.536 C121.718,145.001 120.677,144.874 119.837,144.874 C118.361,144.874 113.498,145.163 112.649,144.680 C112.487,143.905 112.947,142.027 112.311,141.593 C111.753,141.184 109.817,141.291 109.562,141.835 C109.183,142.533 109.737,143.743 109.465,144.487 C109.369,144.584 109.273,144.680 109.176,144.777 C108.336,145.012 107.042,144.874 106.040,144.874 C104.212,144.874 101.736,145.214 100.107,144.777 C99.857,144.190 99.813,142.336 100.156,141.690 C100.962,141.606 102.534,141.964 102.809,141.304 C102.809,140.918 102.809,140.532 102.809,140.146 C102.847,139.807 102.945,139.083 102.761,138.796 C102.352,138.161 100.521,138.905 100.059,138.362 C99.571,137.395 100.513,135.647 99.528,135.178 C98.672,134.934 96.911,135.034 96.441,135.371 C96.350,136.260 96.226,137.635 96.441,138.506 C97.150,138.971 98.662,138.637 99.577,138.796 C99.625,138.860 99.673,138.925 99.721,138.989 C99.905,139.624 99.866,141.016 99.625,141.400 C98.935,141.470 96.785,141.070 96.441,141.786 C96.260,142.525 96.666,144.518 96.103,144.825 C95.436,145.015 93.668,144.996 93.161,144.729 C92.954,143.976 93.211,142.429 92.920,141.593 C92.487,141.379 90.609,141.598 90.315,141.256 C90.009,140.659 90.205,135.562 90.508,135.371 C90.967,135.140 92.284,135.434 92.871,135.226 ZM119.354,100.208 C118.755,99.443 116.912,100.035 116.122,99.581 C115.984,99.046 115.796,97.448 115.977,96.928 C116.405,96.132 118.165,96.818 119.017,96.445 C119.652,96.167 119.270,95.055 119.354,94.226 C119.380,93.968 119.445,93.505 119.257,93.262 C118.581,92.292 113.777,93.461 112.601,92.731 C112.609,91.908 112.693,90.942 112.552,90.319 C112.032,89.952 111.009,90.015 110.093,90.030 C109.996,90.062 109.900,90.094 109.803,90.127 C109.674,90.255 109.546,90.384 109.417,90.512 C109.409,91.286 109.362,92.304 109.562,92.876 C110.234,93.191 111.406,93.005 112.311,93.165 C112.506,93.727 112.408,94.710 112.408,95.433 C112.424,97.812 112.440,100.192 112.456,102.571 C112.834,102.838 118.580,103.061 119.113,102.716 C119.511,102.458 119.475,100.818 119.354,100.208 ZM122.393,110.192 C122.334,109.921 122.145,109.679 121.911,109.565 C120.411,109.113 117.628,109.856 116.219,109.324 C115.843,108.506 116.260,106.944 115.785,106.237 C115.094,106.042 113.912,106.117 113.084,106.044 C112.890,106.140 112.697,106.237 112.504,106.333 C112.309,106.964 112.730,109.047 112.167,109.372 C111.448,109.788 110.307,109.289 109.562,109.758 C109.346,110.457 109.372,111.583 109.562,112.315 C110.580,112.974 114.757,112.604 116.556,112.604 C117.249,112.604 118.535,112.428 118.968,112.749 C119.378,113.052 119.088,115.099 119.209,115.643 C119.761,116.068 121.862,116.369 122.248,115.546 C122.611,114.423 122.273,112.484 122.297,111.109 C122.329,110.803 122.361,110.498 122.393,110.192 ZM126.542,129.052 C127.397,129.052 128.596,129.234 128.905,128.666 C129.218,128.286 129.050,127.042 129.050,126.399 C129.050,124.606 129.444,120.401 128.760,119.260 C128.139,119.044 127.182,119.116 126.252,119.116 C124.210,119.100 122.168,119.084 120.126,119.068 C119.885,119.132 119.644,119.196 119.402,119.260 C118.727,120.270 119.113,124.640 119.113,126.448 C119.113,127.475 118.984,128.336 119.402,128.908 C121.440,129.317 124.250,129.052 126.542,129.052 ZM109.224,122.396 C109.305,122.476 109.385,122.557 109.465,122.637 C109.465,125.756 109.465,128.876 109.465,131.995 C109.465,132.970 109.167,134.788 109.706,135.130 C110.333,135.605 111.717,135.172 112.360,135.612 C112.376,136.528 112.392,137.445 112.408,138.362 C112.713,139.045 115.069,138.780 115.785,138.603 C116.226,137.907 115.606,135.776 116.412,135.371 C117.343,135.157 118.892,135.736 119.306,134.889 C119.605,134.354 119.403,132.625 119.257,132.091 C118.516,131.582 116.889,131.975 116.122,131.512 C115.760,130.408 116.502,126.676 115.881,125.772 C115.300,124.927 113.152,125.973 112.697,125.097 C112.406,124.578 112.571,122.995 112.697,122.444 C113.570,122.185 114.827,122.388 115.688,122.203 C116.168,121.551 116.177,120.162 115.833,119.357 C115.088,119.064 113.533,119.371 112.697,118.971 C112.595,118.124 112.878,116.231 112.263,115.884 C111.803,115.630 110.812,115.729 110.141,115.739 C109.948,115.852 109.755,115.965 109.562,116.077 C109.347,116.829 109.573,118.121 109.369,118.971 C108.505,119.273 106.961,118.910 106.282,119.309 C106.015,119.987 105.768,121.893 106.523,122.251 C107.125,122.574 108.568,122.279 109.224,122.396 ZM112.311,119.453 C112.478,120.030 112.537,121.517 112.263,122.010 C111.508,122.164 110.213,122.179 109.755,121.865 C109.701,120.980 109.530,119.781 110.093,119.357 C110.826,119.347 111.728,119.308 112.311,119.453 ZM122.827,122.299 C123.642,122.271 125.029,122.124 125.336,122.637 C125.779,123.108 125.471,125.144 125.046,125.338 C124.441,125.699 122.768,125.428 122.442,125.194 C122.224,124.632 122.181,123.299 122.345,122.637 C122.506,122.524 122.667,122.412 122.827,122.299 ZM126.252,141.642 C126.933,141.618 128.443,141.456 128.712,141.883 C128.942,142.427 128.906,143.973 128.809,144.536 C128.696,144.632 128.584,144.729 128.471,144.825 C127.605,145.075 126.105,144.884 125.625,144.536 C125.606,143.317 125.466,142.120 126.252,141.642 ZM139.759,138.699 C140.319,138.725 140.898,138.706 141.351,138.844 C141.367,138.876 141.383,138.908 141.399,138.940 C141.369,139.857 141.176,141.244 141.784,141.545 C142.538,141.893 143.615,141.342 144.438,141.593 C145.076,141.788 144.972,144.038 144.824,144.680 C144.180,145.081 139.756,145.004 138.842,144.777 C138.794,144.696 138.745,144.616 138.697,144.536 C138.699,142.845 138.472,140.456 138.794,138.940 C139.041,138.786 139.419,138.830 139.759,138.699 ZM144.775,99.629 C143.902,100.065 139.271,99.774 137.733,99.774 C137.033,99.774 135.766,99.601 135.321,99.918 C134.788,100.297 135.308,101.990 134.935,102.571 C134.114,102.841 132.435,102.794 131.944,102.282 C131.996,101.491 132.269,100.211 131.655,99.918 C130.963,99.562 129.638,99.886 129.050,99.484 C129.050,98.568 129.050,97.651 129.050,96.735 C130.177,96.224 134.411,96.953 135.128,96.397 C135.848,95.839 134.819,93.704 135.562,93.214 C135.771,93.165 135.980,93.117 136.189,93.069 C136.886,93.106 137.830,93.024 138.408,93.165 C139.315,95.339 136.978,96.581 140.627,96.542 C141.073,96.537 141.278,96.458 141.543,96.300 C141.737,95.689 141.346,93.544 141.881,93.214 C142.446,92.942 144.103,93.007 144.727,93.165 C145.066,93.910 144.963,98.665 144.775,99.629 ZM141.495,54.095 C141.702,53.359 141.483,52.170 141.784,51.538 C142.291,51.449 143.495,51.570 144.052,51.345 C144.197,51.361 144.341,51.378 144.486,51.394 C145.118,51.718 144.872,53.411 144.872,54.336 C144.872,56.362 144.872,58.388 144.872,60.413 C144.872,61.416 144.969,62.656 144.775,63.500 C144.711,63.597 144.647,63.694 144.583,63.790 C144.022,63.873 142.017,63.963 141.736,63.549 C141.382,62.858 141.993,61.523 141.447,60.993 C140.974,60.532 139.579,60.951 138.842,60.703 C138.549,59.908 138.608,54.922 138.890,54.384 C139.832,54.282 140.887,54.463 141.495,54.095 ZM132.668,77.006 C133.337,76.993 134.736,76.865 134.983,77.296 C135.314,77.710 135.228,79.805 134.983,80.238 C134.131,80.358 132.798,80.347 132.089,80.142 C132.040,80.061 131.992,79.981 131.944,79.901 C131.948,79.018 131.905,77.972 132.089,77.248 C132.282,77.167 132.475,77.087 132.668,77.006 ZM132.089,57.278 C131.871,56.377 131.816,52.724 131.944,51.876 C132.172,51.549 132.385,51.530 132.764,51.345 C133.391,51.361 134.018,51.378 134.645,51.394 C134.850,51.478 135.052,51.628 135.128,51.828 C135.144,53.451 135.160,55.076 135.176,56.699 C135.131,56.996 134.980,57.301 134.742,57.423 C134.275,57.659 132.498,57.517 132.089,57.278 ZM138.408,67.311 C138.943,66.544 138.417,64.679 139.035,64.032 C139.742,64.047 140.450,64.063 141.158,64.080 C141.190,64.111 141.222,64.144 141.254,64.176 C141.731,64.912 141.029,66.538 141.543,67.118 C142.016,67.651 143.801,67.246 144.534,67.359 C144.614,67.424 144.695,67.488 144.775,67.552 C144.947,69.160 144.872,71.142 144.872,72.907 C144.872,75.881 144.872,78.856 144.872,81.830 C144.872,82.780 145.052,86.217 144.679,86.509 C143.952,86.927 142.304,86.276 141.640,86.750 C141.083,87.148 141.526,89.026 141.399,89.789 C140.934,90.128 139.752,90.146 138.938,89.982 C138.874,89.886 138.810,89.789 138.745,89.692 C138.331,88.043 139.326,84.607 138.504,83.277 C137.683,82.997 135.990,83.342 135.321,82.891 C135.321,82.859 135.321,82.827 135.321,82.795 C135.198,82.328 135.252,81.084 135.417,80.576 C136.276,80.354 137.573,80.608 138.504,80.383 C138.919,79.722 138.348,77.558 138.987,77.151 C139.462,76.865 140.804,77.076 141.351,76.958 C141.463,76.814 141.576,76.669 141.688,76.524 C141.776,76.235 141.630,70.953 141.592,70.881 C141.282,70.294 139.183,70.414 138.649,70.784 C138.437,71.748 138.779,72.893 138.167,73.485 C137.312,73.475 135.929,73.541 135.369,73.196 C135.272,72.565 135.631,71.036 135.032,70.688 C134.327,70.149 132.401,71.010 131.944,70.109 C131.793,69.473 131.943,67.933 132.234,67.504 C133.816,67.026 136.695,67.721 138.408,67.311 Z"/></svg>