<svg  xmlns="http://www.w3.org/2000/svg" xmlns:xlink="http://www.w3.org/1999/xlink" width="28px" height="26px"><path fill-rule="evenodd"  fill="rgb(255, 255, 255)" d="M14.020,25.998 C13.930,25.989 13.982,25.990 13.973,25.998 C7.847,25.998 -3.999,24.283 1.357,14.501 C3.509,10.599 5.907,4.620 6.321,0.004 C7.866,2.958 10.662,5.589 13.996,5.708 C17.332,5.589 20.129,2.958 21.674,0.004 C22.089,4.620 24.488,10.599 26.641,14.501 C31.999,24.283 20.148,25.998 14.020,25.998 ZM8.840,12.246 C7.711,12.246 6.797,13.174 6.797,14.322 C6.797,15.469 7.711,16.398 8.840,16.398 C9.969,16.398 10.884,15.469 10.884,14.322 C10.884,13.174 9.969,12.246 8.840,12.246 ZM19.053,12.246 C17.925,12.246 17.010,13.174 17.010,14.322 C17.010,15.469 17.925,16.398 19.053,16.398 C20.182,16.398 21.097,15.469 21.097,14.322 C21.097,13.174 20.182,12.246 19.053,12.246 Z"/></svg>