<svg  xmlns="http://www.w3.org/2000/svg" xmlns:xlink="http://www.w3.org/1999/xlink" width="36px" height="35px"><path fill-rule="evenodd"  fill="rgb(35, 30, 100)" d="M34.439,3.377 L20.319,17.497 L34.408,31.585 C35.187,32.365 35.187,33.628 34.408,34.408 C33.630,35.185 32.366,35.185 31.587,34.407 L17.498,20.318 L3.409,34.407 C2.630,35.185 1.368,35.185 0.589,34.408 C-0.190,33.628 -0.190,32.365 0.589,31.585 L14.678,17.497 L0.558,3.377 C-0.222,2.599 -0.222,1.335 0.557,0.556 C1.336,-0.223 2.600,-0.223 3.378,0.556 L17.498,14.676 L31.618,0.556 C32.397,-0.223 33.660,-0.223 34.439,0.556 C35.218,1.335 35.218,2.599 34.439,3.377 Z"/></svg>