<svg  xmlns="http://www.w3.org/2000/svg" xmlns:xlink="http://www.w3.org/1999/xlink" width="37px" height="29px"><path fill-rule="evenodd"  fill="rgb(20, 30, 70)" d="M35.499,15.998 L1.499,15.998 C0.670,15.998 -0.001,15.326 -0.001,14.497 C-0.001,13.669 0.670,12.998 1.499,12.998 L35.499,12.998 C36.327,12.998 36.999,13.669 36.999,14.497 C36.999,15.326 36.327,15.998 35.499,15.998 ZM28.499,2.997 L1.499,2.997 C0.670,2.997 -0.001,2.326 -0.001,1.498 C-0.001,0.669 0.670,-0.002 1.499,-0.002 L28.499,-0.002 C29.327,-0.002 29.999,0.669 29.999,1.498 C29.999,2.326 29.327,2.997 28.499,2.997 ZM1.499,25.997 L21.499,25.997 C22.327,25.997 22.999,26.669 22.999,27.497 L22.999,27.498 C22.999,28.327 22.327,28.998 21.499,28.998 L1.499,28.998 C0.670,28.998 -0.001,28.327 -0.001,27.498 L-0.001,27.497 C-0.001,26.669 0.670,25.997 1.499,25.997 Z"/></svg>